<svg width="20" height="15" viewBox="0 0 20 15" fill="none" xmlns="http://www.w3.org/2000/svg">
<path d="M19.375 1.77735C18.6717 2.08296 17.9275 2.2843 17.166 2.37501C17.9663 1.9064 18.5681 1.16195 18.8586 0.281256C18.102 0.723675 17.2756 1.0341 16.4148 1.19923C16.0524 0.819354 15.6165 0.517157 15.1336 0.311001C14.6507 0.104845 14.1309 -0.0009638 13.6059 6.61501e-06C11.4801 6.61501e-06 9.75977 1.69532 9.75977 3.78516C9.75826 4.07585 9.79157 4.36568 9.85898 4.64844C8.33464 4.57698 6.842 4.18812 5.47656 3.50675C4.11111 2.82537 2.90292 1.86648 1.9293 0.691413C1.58772 1.26724 1.40708 1.92424 1.40625 2.59376C1.40625 3.90626 2.09102 5.06641 3.125 5.7461C2.51239 5.73156 1.91234 5.56942 1.37578 5.27344V5.32032C1.37578 7.15626 2.70391 8.6836 4.46172 9.03126C4.13117 9.11938 3.79053 9.16402 3.44844 9.16407C3.20569 9.16449 2.9635 9.14094 2.72539 9.09376C3.21406 10.5977 4.63633 11.6914 6.32109 11.7227C4.9521 12.7777 3.27134 13.348 1.54297 13.3438C1.23618 13.3433 0.929674 13.325 0.625 13.2891C2.38327 14.4118 4.42713 15.0057 6.51328 15C13.5977 15 17.468 9.23048 17.468 4.22657C17.468 4.06251 17.4637 3.89844 17.4559 3.73829C18.2071 3.20394 18.857 2.53989 19.375 1.77735Z" fill="white"/>
</svg>